<svg height="512" viewBox="0 0 74 74" width="512" xmlns="http://www.w3.org/2000/svg"><g id="line_icons" data-name="line icons"><path d="m66.88 72h-58.094a5.3 5.3 0 0 1 -5.3-5.3v-55.346a5.3 5.3 0 0 1 5.3-5.3h58.094a5.3 5.3 0 0 1 5.3 5.3v55.346a5.3 5.3 0 0 1 -5.3 5.3zm-58.094-63.944a3.3 3.3 0 0 0 -3.3 3.3v55.344a3.3 3.3 0 0 0 3.3 3.3h58.094a3.3 3.3 0 0 0 3.3-3.3v-55.346a3.3 3.3 0 0 0 -3.3-3.3z"/><path d="m16.964 14.059a1 1 0 0 1 -1-1v-10.059a1 1 0 1 1 2 0v10.059a1 1 0 0 1 -1 1z"/><path d="m58.7 14.059a1 1 0 0 1 -1-1v-10.059a1 1 0 0 1 2 0v10.059a1 1 0 0 1 -1 1z"/><path d="m71.179 24.854h-66.692a1 1 0 0 1 0-2h66.692a1 1 0 0 1 0 2z"/><path d="m52.792 64.875h-38.042a4.421 4.421 0 0 1 -4.416-4.416v-36.605a1 1 0 0 1 1-1h53a1 1 0 0 1 1 1v28.48a1 1 0 0 1 -.293.707l-11.541 11.541a1 1 0 0 1 -.708.293zm-40.458-40.021v35.605a2.419 2.419 0 0 0 2.416 2.416h37.628l10.955-10.955v-27.066z"/><path d="m52.792 64.875a1 1 0 0 1 -1-1v-8.125a4.421 4.421 0 0 1 4.416-4.416h8.125a1 1 0 0 1 .707 1.707l-11.54 11.541a1 1 0 0 1 -.708.293zm3.416-11.541a2.419 2.419 0 0 0 -2.416 2.416v5.711l8.127-8.127z"/><path d="m24.75 38.833h-6.5a1 1 0 0 1 -1-1v-6.5a1 1 0 0 1 1-1h6.5a1 1 0 0 1 1 1v6.5a1 1 0 0 1 -1 1zm-5.5-2h4.5v-4.5h-4.5z"/><path d="m41.083 38.833h-6.5a1 1 0 0 1 -1-1v-6.5a1 1 0 0 1 1-1h6.5a1 1 0 0 1 1 1v6.5a1 1 0 0 1 -1 1zm-5.5-2h4.5v-4.5h-4.5z"/><path d="m57.417 38.833h-6.5a1 1 0 0 1 -1-1v-6.5a1 1 0 0 1 1-1h6.5a1 1 0 0 1 1 1v6.5a1 1 0 0 1 -1 1zm-5.5-2h4.5v-4.5h-4.5z"/><path d="m24.75 54.878h-6.5a1 1 0 0 1 -1-1v-6.5a1 1 0 0 1 1-1h6.5a1 1 0 0 1 1 1v6.5a1 1 0 0 1 -1 1zm-5.5-2h4.5v-4.5h-4.5z"/><path d="m41.083 54.878h-6.5a1 1 0 0 1 -1-1v-6.5a1 1 0 0 1 1-1h6.5a1 1 0 0 1 1 1v6.5a1 1 0 0 1 -1 1zm-5.5-2h4.5v-4.5h-4.5z"/></g></svg>